<?xml version="1.0" standalone="no"?>
<!DOCTYPE svg PUBLIC "-//W3C//DTD SVG 20010904//EN"
 "http://www.w3.org/TR/2001/REC-SVG-20010904/DTD/svg10.dtd">
<svg version="1.0" xmlns="http://www.w3.org/2000/svg"
 width="820.000000pt" height="479.000000pt" viewBox="0 0 820.000000 479.000000"
 preserveAspectRatio="xMidYMid meet">

<g transform="translate(0.000000,479.000000) scale(0.100000,-0.100000)"
fill="#000000" stroke="none">
<path d="M4795 4359 c-102 -90 -139 -231 -95 -370 10 -34 17 -66 14 -70 -7
-11 -1117 -965 -1140 -979 -16 -10 -27 -7 -71 23 -60 40 -153 73 -233 82 -140
16 -355 -77 -406 -177 -33 -63 -29 -68 341 -438 l345 -345 -358 -360 c-337
-339 -492 -502 -658 -690 -73 -82 -366 -441 -397 -485 -21 -30 -22 -72 -2
-109 17 -34 33 -41 91 -41 42 0 53 7 256 173 324 264 458 387 911 836 l418
415 328 -328 c309 -309 330 -328 370 -333 41 -6 44 -4 95 49 30 31 67 84 84
119 83 174 63 349 -60 520 -10 14 60 100 463 570 262 305 486 566 500 581 l24
27 60 -20 c122 -42 270 -10 363 78 37 35 42 45 42 84 l0 44 -583 583 c-546
546 -586 584 -624 589 -35 5 -45 1 -78 -28z"/>
</g>
</svg>
